<svg xmlns="http://www.w3.org/2000/svg" viewBox="0 0 480 270"><filter id="b"><feGaussianBlur stdDeviation="12" /></filter><path fill="#1a3111" d="M0 0h480v270H0z"/><g filter="url(#b)" transform="translate(1 1) scale(1.875)" fill-opacity=".5"><ellipse fill="#5affb4" rx="1" ry="1" transform="matrix(24.57116 -2.66928 4.9496 45.56186 128.7 76.8)"/><path fill="#fff" d="M121.7 101.4l-1.4-40 24-.8 1.4 40zm72.7-82L172 8.4l9.7-19.8L204-.4z"/><path fill="#00ff2d" d="M128 112L80 96l42-44z"/><ellipse fill="#080000" cx="27" cy="61" rx="58" ry="255"/><ellipse fill="#050000" rx="1" ry="1" transform="rotate(-65.6 180.5 -130) scale(60.69904 82.84932)"/><path fill="#b49281" d="M121 4h84v17h-84z"/><ellipse fill="#00ed0c" rx="1" ry="1" transform="matrix(9.23375 -33.38894 9.5291 2.63529 145 117)"/></g></svg>