<svg xmlns="http://www.w3.org/2000/svg" viewBox="0 0 980 598"><filter id="b"><feGaussianBlur stdDeviation="12" /></filter><path fill="#787976" d="M0 0h980v597H0z"/><g filter="url(#b)" transform="translate(2 2) scale(3.82813)" fill-opacity=".5"><ellipse fill="#fff" rx="1" ry="1" transform="rotate(-78.5 181.7 -69.5) scale(60.74041 89.1571)"/><ellipse rx="1" ry="1" transform="matrix(-78.47638 5.50343 -9.07835 -129.45293 50 87.5)"/><ellipse fill="#f7e6d4" rx="1" ry="1" transform="rotate(-48.9 96.6 -40.3) scale(28.65393 43.67806)"/><path fill="#fff" d="M121 63l123 108 27-110z"/><path fill="#00050b" d="M-11 171h154L0 23z"/><ellipse fill="#f6e3cf" cx="73" cy="92" rx="15" ry="27"/><ellipse fill="#fff" rx="1" ry="1" transform="rotate(-5.9 1241.8 -1406.2) scale(23.79201 62.80037)"/><path d="M163.5-16.2l11.5 20-80.5 46.4-11.5-20z"/></g></svg>