<svg xmlns="http://www.w3.org/2000/svg" viewBox="0 0 1050 625"><filter id="b"><feGaussianBlur stdDeviation="12" /></filter><path fill="#fbfaf9" d="M0 0h1050v623H0z"/><g filter="url(#b)" transform="translate(2 2) scale(4.10156)" fill-opacity=".5"><ellipse fill="#f2f1ed" cx="107" cy="72" rx="76" ry="42"/><path fill="#dfdfde" d="M145 23l40 6-46-30z"/><path fill="#d0bcb9" d="M65 102.3l51.6-13.1-51.5 20-50.4-43.8z"/><ellipse fill="#fff" rx="1" ry="1" transform="matrix(95.62312 -30.88543 9.903 30.6603 38.4 18.3)"/><path fill="#fff" d="M297.6 149.9l-148 75.3-37.2-73 148-75.4z"/><ellipse fill="#fff" rx="1" ry="1" transform="matrix(-15.83304 32.93466 -73.48974 -35.32953 37.8 133.8)"/><path fill="#fbeecb" d="M127.3 50.2l-2.2 6.6 46.5 34 12.8-.8z"/><ellipse fill="#fff" rx="1" ry="1" transform="matrix(24.81822 -27.67436 72.62081 65.12595 220.5 17)"/></g></svg>