<svg xmlns="http://www.w3.org/2000/svg" viewBox="0 0 1050 625"><filter id="b"><feGaussianBlur stdDeviation="12" /></filter><path fill="#fbfaf9" d="M0 0h1050v623H0z"/><path fill="#d3c1be" fill-opacity=".5" d="M280.8 429.7L46.4 257.8 246 442.7l102.4-11.5z"/><ellipse fill="#f2f2ee" fill-opacity=".5" rx="1" ry="1" transform="rotate(-2.6 6225.4 -12634) scale(245.70165 214.00569)"/><path fill="#c4aca6" fill-opacity=".5" d="M247.2 401l30.8 50.2 143.7-70.5-144.3 53.7z"/><ellipse fill="#fff" fill-opacity=".5" rx="1" ry="1" transform="rotate(-97.6 572 -275.6) scale(849.90604 171.29456)"/><ellipse fill="#fff" fill-opacity=".5" rx="1" ry="1" transform="rotate(37.5 -672.8 487) scale(280.53103 125.55955)"/><ellipse fill="#fff" fill-opacity=".5" rx="1" ry="1" transform="matrix(401.93421 -117.60415 40.2839 137.6778 188.6 50.9)"/><ellipse fill="#f9edd0" fill-opacity=".5" rx="1" ry="1" transform="matrix(-13.10638 18.5108 -105.6414 -74.79828 636.8 314)"/><path fill="#cfcfce" fill-opacity=".5" d="M596.8 43H650v53.4h-53.3z"/></svg>