<svg xmlns="http://www.w3.org/2000/svg" viewBox="0 0 320 250"><filter id="b"><feGaussianBlur stdDeviation="12" /></filter><path fill="#7f7868" d="M0 0h320v250H0z"/><g filter="url(#b)" transform="matrix(1.25 0 0 1.25 .6 .6)" fill-opacity=".5"><ellipse fill="#f6d1b3" rx="1" ry="1" transform="rotate(143.4 28.2 83.7) scale(34.6717 45.02476)"/><path fill="#d9ffff" d="M198 51h14v108h-14z"/><path fill="#fff" d="M68 48h15v109H68z"/><ellipse fill="#021005" rx="1" ry="1" transform="matrix(.0344 6.4074 -80.03141 .42972 159.5 178.8)"/><ellipse fill="#543b36" rx="1" ry="1" transform="matrix(33.1918 -17.57576 42.53669 80.33046 14.5 60.2)"/><ellipse fill="#c6e3ef" rx="1" ry="1" transform="matrix(-1.46722 -8.84517 40.73399 -6.75685 167.8 164.3)"/><ellipse cx="149" cy="53" rx="49" ry="7"/><ellipse fill="#344548" cx="235" cy="144" rx="25" ry="62"/></g></svg>