<svg xmlns="http://www.w3.org/2000/svg" viewBox="0 0 640 400"><filter id="b"><feGaussianBlur stdDeviation="12" /></filter><path fill="#4d4133" d="M0 0h640v400H0z"/><g filter="url(#b)" transform="matrix(2.5 0 0 2.5 1.3 1.3)" fill-opacity=".5"><ellipse fill="#fff" rx="1" ry="1" transform="matrix(-28.78953 -7.40504 20.0601 -77.99022 248 72.5)"/><ellipse fill="#120700" cx="25" cy="60" rx="101" ry="101"/><path fill="#fff" d="M61 52h133v14H61z"/><path d="M247-20.6l-68.4 210.2-27.5-9 68.3-210.2z"/><ellipse fill="#d8a363" rx="1" ry="1" transform="matrix(-22.51788 1.16858 -1.4119 -27.20648 137 114.3)"/><path fill="#cbecd9" d="M220 71.3l40 16-24 59.4-40-16z"/><ellipse fill="#cae9d6" cx="251" cy="13" rx="17" ry="142"/><path fill="#e4a56c" d="M162 7h31v48h-31z"/></g></svg>