<svg xmlns="http://www.w3.org/2000/svg" viewBox="0 0 640 400"><filter id="b"><feGaussianBlur stdDeviation="12" /></filter><path fill="#4d4133" d="M0 0h640v400H0z"/><g filter="url(#b)" transform="matrix(2.5 0 0 2.5 1.3 1.3)" fill-opacity=".5"><ellipse fill="#fff" rx="1" ry="1" transform="matrix(16.00537 -68.7803 30.40987 7.07646 246.6 82.8)"/><ellipse fill="#120700" cx="28" cy="58" rx="99" ry="99"/><path fill="#fff" d="M64 51h127v15H64z"/><ellipse fill="#cef1de" rx="1" ry="1" transform="matrix(3.19448 -105.67458 22.60785 .68342 255 50.4)"/><path fill="#dfa866" d="M137.8 82.4l26 29-35.6 32.2-26-29z"/><path d="M157.1 162.6l57.2-175.9 26.6 8.7-57.2 175.9z"/><path fill="#c7e2d0" d="M194 130l64 20-29-81z"/><path d="M161 117l106 41-124 17z"/></g></svg>