<svg xmlns="http://www.w3.org/2000/svg" viewBox="0 0 640 400"><filter id="b"><feGaussianBlur stdDeviation="12" /></filter><path fill="#4d4133" d="M0 0h640v400H0z"/><g filter="url(#b)" transform="matrix(2.5 0 0 2.5 1.3 1.3)" fill-opacity=".5"><ellipse fill="#fff" rx="1" ry="1" transform="matrix(-30.42223 -8.65897 25.05254 -88.01906 253.8 59.7)"/><path d="M-45.7 221.5l4.4-255 107 2-4.4 255z"/><path fill="#fff" d="M57 53h132v13H57z"/><ellipse cx="105" cy="9" rx="40" ry="44"/><path fill="#d3f5e2" d="M214.8 83.5l60.7 23.3-18.3 47.7-60.7-23.3z"/><ellipse fill="#020000" rx="1" ry="1" transform="matrix(18.87352 5.11991 -16.39998 60.4552 213.1 36.7)"/><ellipse fill="#daa463" rx="1" ry="1" transform="rotate(-2.8 2450.4 -2760.5) scale(20.81127 29.68583)"/><path fill="#eab27e" d="M159 61l5-56.8L197 7l-5 56.8z"/></g></svg>