<svg xmlns="http://www.w3.org/2000/svg" viewBox="0 0 320 240"><filter id="b"><feGaussianBlur stdDeviation="12" /></filter><path fill="#483c54" d="M0 0h320v240H0z"/><g filter="url(#b)" transform="matrix(1.25 0 0 1.25 .6 .6)" fill-opacity=".5"><ellipse fill="#fffbab" rx="1" ry="1" transform="matrix(20.49593 -3.06314 6.4952 43.4604 145 176)"/><ellipse fill="#bb9acf" rx="1" ry="1" transform="matrix(41.24127 -6.20356 4.84069 32.18087 124.3 62)"/><ellipse fill="#83ffc3" cx="179" cy="119" rx="20" ry="18"/><ellipse fill="#07001a" rx="1" ry="1" transform="matrix(-18.83841 -28.86421 39.73234 -25.93157 48 27.7)"/><ellipse fill="#21101f" cx="238" cy="44" rx="28" ry="255"/><ellipse fill="#1e102d" rx="1" ry="1" transform="matrix(-43.19003 -28.38245 21.34699 -32.48405 79.7 162.2)"/><ellipse fill="#bab5f2" rx="1" ry="1" transform="matrix(-5.43015 -2.24424 22.33492 -54.0415 111 56.5)"/><ellipse fill="#7c6cf9" rx="1" ry="1" transform="matrix(-12.92527 31.04119 -4.88133 -2.03254 27.1 76.3)"/></g></svg>