<svg xmlns="http://www.w3.org/2000/svg" viewBox="0 0 320 240"><filter id="b"><feGaussianBlur stdDeviation="12" /></filter><path fill="#483c54" d="M0 0h320v240H0z"/><g filter="url(#b)" transform="matrix(1.25 0 0 1.25 .6 .6)" fill-opacity=".5"><ellipse fill="#ffffb4" rx="1" ry="1" transform="matrix(5.59694 41.79116 -18.78623 2.51597 145.9 176)"/><ellipse fill="#be9dd1" rx="1" ry="1" transform="matrix(37.70486 -12.55735 10.38582 31.18459 126.4 62.3)"/><ellipse fill="#85ffc7" rx="1" ry="1" transform="matrix(1.18732 17.41624 -18.0095 1.22777 179 120.4)"/><ellipse fill="#060019" rx="1" ry="1" transform="matrix(18.19572 28.75472 -39.98623 25.30292 47.5 27.2)"/><ellipse fill="#21101f" cx="239" cy="116" rx="29" ry="255"/><ellipse fill="#f9f5ff" rx="1" ry="1" transform="matrix(4.14615 -13.56652 10.66122 3.25824 110.5 58.8)"/><ellipse fill="#201330" cx="73" cy="174" rx="53" ry="59"/><path fill="#8878ff" d="M11 102l29-63-7 48z"/></g></svg>