<svg xmlns="http://www.w3.org/2000/svg" viewBox="0 0 320 240"><filter id="b"><feGaussianBlur stdDeviation="12" /></filter><path fill="#483c54" d="M0 0h320v240H0z"/><g filter="url(#b)" transform="matrix(1.25 0 0 1.25 .6 .6)" fill-opacity=".5"><path fill="#ffffb8" d="M157 136l9.5 54.1-33.5 6-9.5-54.2z"/><ellipse fill="#c09fd2" rx="1" ry="1" transform="matrix(-38.61052 6.87758 -5.674 -31.85368 127.6 63.1)"/><ellipse fill="#7dfdba" rx="1" ry="1" transform="matrix(-4.80455 18.18267 -20.06115 -5.30092 178.7 118.8)"/><ellipse fill="#07001a" rx="1" ry="1" transform="matrix(28.32031 25.23248 -32.4114 36.37775 49.7 22.7)"/><ellipse fill="#1e0e1d" cx="231" cy="91" rx="21" ry="255"/><path fill="#231536" d="M-16 184L52 61l88 146z"/><ellipse fill="#c4bffb" rx="1" ry="1" transform="matrix(19.72445 -46.48697 5.39535 2.28925 110.8 55.7)"/><ellipse fill="#7462ef" rx="1" ry="1" transform="matrix(-12.90471 29.0868 -6.45708 -2.86476 25.7 78.6)"/></g></svg>