<svg xmlns="http://www.w3.org/2000/svg" viewBox="0 0 600 307"><filter id="b"><feGaussianBlur stdDeviation="12" /></filter><path fill="#a26275" d="M0 0h600v304H0z"/><g filter="url(#b)" transform="translate(1.2 1.2) scale(2.34375)" fill-opacity=".5"><path fill="#fff" d="M1 98h243v12H1z"/><path fill="#000f00" d="M135.4 120l.2-10 111 2-.2 10z"/><ellipse fill="#000f03" cx="70" cy="115" rx="82" ry="6"/><ellipse fill="#ecab04" rx="1" ry="1" transform="matrix(9.26165 15.72316 -22.91012 13.4951 218 65.2)"/><ellipse fill="#9e2649" rx="1" ry="1" transform="matrix(254.92388 6.2302 -1.10699 45.29503 166 .8)"/><path fill="#ebf2ee" d="M25.7 93.7l8.6-2.7-11-23.3-28.4 8z"/><path fill="#fff" d="M13 97h226v13H13z"/><path fill="#611d10" d="M271 13l-12 101-32-37z"/></g></svg>