<svg xmlns="http://www.w3.org/2000/svg" viewBox="0 0 908 485"><filter id="b"><feGaussianBlur stdDeviation="12" /></filter><path fill="#bfc8da" d="M0 0h908v482H0z"/><path fill="#0033b4" fill-opacity=".5" d="M115.3 161.4h308.6v173.8H115.3z"/><path fill="#000d7e" fill-opacity=".5" d="M352.5 316.2l-78.3-92L390.7 64.6l46.5-8.9z"/><path fill="#000070" fill-opacity=".5" d="M364.8 268.5l63.4-7.8 12.1 98.6L377 367z"/><path fill="#0041e0" fill-opacity=".5" d="M29.5 424.3L42.3 333l87.8 12.3-12.8 91.4z"/><path fill="#fdf3dd" fill-opacity=".5" d="M384.8 165h525v102.8h-525z"/><ellipse fill="#eef3fd" fill-opacity=".5" rx="1" ry="1" transform="matrix(92.78077 92.26656 -129.70176 130.4246 71.6 125.7)"/><path fill="#f5eee0" fill-opacity=".5" d="M924 246.5L-37.2 455.8l932.8 81.6z"/><ellipse fill="#0b51e1" fill-opacity=".5" rx="1" ry="1" transform="matrix(-28.77814 -2.57113 8.00954 -89.64904 286 51)"/></svg>