<svg xmlns="http://www.w3.org/2000/svg" viewBox="0 0 908 485"><filter id="b"><feGaussianBlur stdDeviation="12" /></filter><path fill="#bfc8da" d="M0 0h908v482H0z"/><g filter="url(#b)" transform="translate(1.8 1.8) scale(3.54688)" fill-opacity=".5"><path fill="#0034b0" d="M37.6 49.5L116 40l6.4 52.6L44 102z"/><path fill="#000a7f" d="M92 71.6l-13-9.2 35-50 13 9.2z"/><path fill="#578aed" d="M15.6 121.7L3.8 113 95-16 72 90z"/><path fill="#000f7f" d="M125 81L71 61l46 45z"/><ellipse fill="#f0f1f3" cx="76" cy="115" rx="42" ry="29"/><ellipse fill="#f5ecda" rx="1" ry="1" transform="rotate(125.1 61.9 84.9) scale(31.58923 69.52969)"/><ellipse fill="#fffffe" rx="1" ry="1" transform="matrix(15.97264 -1.12869 3.06853 43.42444 44.6 17.2)"/><ellipse fill="#eae4d9" cx="195" cy="44" rx="75" ry="183"/></g></svg>