<svg xmlns="http://www.w3.org/2000/svg" viewBox="0 0 476 248"><filter id="b"><feGaussianBlur stdDeviation="12" /></filter><path fill="#858585" d="M0 0h476v247H0z"/><ellipse fill="#131313" fill-opacity=".5" rx="1" ry="1" transform="rotate(-157.5 52.7 90.5) scale(141.12533 90.59199)"/><ellipse fill="#d9d9d9" fill-opacity=".5" rx="1" ry="1" transform="matrix(-86.6862 41.34934 -85.74445 -179.75764 218.4 31.6)"/><ellipse fill="#0e0e0e" fill-opacity=".5" rx="1" ry="1" transform="matrix(-4.75734 -31.21734 208.04476 -31.70483 337.2 246.4)"/><ellipse fill="#c7c7c7" fill-opacity=".5" rx="1" ry="1" transform="matrix(-39.38231 25.77106 -52.4849 -80.20532 382.5 33.2)"/><ellipse fill-opacity=".5" rx="1" ry="1" transform="matrix(-19.28374 3.83851 -5.9493 -29.88778 354.1 110.8)"/><path fill="#bcbcbc" fill-opacity=".5" d="M20 91.5L51.2-25.2 171.6 7l-31.3 116.8z"/><path fill-opacity=".5" d="M345 104l11-1.9 18.5 104.4-11 2z"/><path fill="#373737" fill-opacity=".5" d="M128.8 155l8.7-30.3 55.4 15.9-8.7 30.4z"/></svg>