<svg xmlns="http://www.w3.org/2000/svg" viewBox="0 0 476 248"><filter id="b"><feGaussianBlur stdDeviation="12" /></filter><path fill="#858585" d="M0 0h476v247H0z"/><ellipse fill="#121212" fill-opacity=".5" rx="1" ry="1" transform="matrix(-27.0153 81.47786 -149.53608 -49.5811 47.4 184.8)"/><ellipse fill="#dadada" fill-opacity=".5" rx="1" ry="1" transform="matrix(-54.24664 -168.53852 94.50469 -30.41775 231.5 39.3)"/><ellipse fill="#0b0b0b" fill-opacity=".5" rx="1" ry="1" transform="rotate(83.8 30.8 310.7) scale(31.86801 165.12804)"/><ellipse fill="#cacaca" fill-opacity=".5" rx="1" ry="1" transform="matrix(-16.89556 -74.50881 44.88502 -10.1781 398 47.5)"/><ellipse fill="#181818" fill-opacity=".5" rx="1" ry="1" transform="rotate(-98.4 237.4 -86) scale(85.87357 11.74671)"/><path fill="silver" fill-opacity=".5" d="M24.2 93.4l35.2-131L163.5-9.9l-35 131.1z"/><path fill="#5b5b5b" fill-opacity=".5" d="M58.6 134.8h132v80h-132z"/><path fill="#bababa" fill-opacity=".5" d="M315.2 131H356v93h-41z"/></svg>