<svg xmlns="http://www.w3.org/2000/svg" viewBox="0 0 476 248"><filter id="b"><feGaussianBlur stdDeviation="12" /></filter><path fill="#858585" d="M0 0h476v247H0z"/><g filter="url(#b)" transform="translate(1 1) scale(1.85938)" fill-opacity=".5"><ellipse fill="#0f0f0f" rx="1" ry="1" transform="matrix(4.11472 -52.28243 101.80179 8.01197 .1 102.1)"/><ellipse fill="#dadada" rx="1" ry="1" transform="matrix(38.78427 93.6335 -48.72079 20.18081 119.2 18)"/><ellipse fill="#101010" rx="1" ry="1" transform="rotate(173.4 98 72) scale(133.0116 20.18515)"/><path fill="#040404" d="M203 55l-6 59-16-76z"/><ellipse fill="#c3c3c3" cx="213" cy="42" rx="19" ry="67"/><ellipse fill="#bababa" rx="1" ry="1" transform="matrix(31.14023 -30.903 31.52386 31.76586 60.4 18)"/><path fill="#2c2c2c" d="M80 71h22v23H80z"/><path fill="#c9c9c9" d="M172.2 120.3L169 94.5l22.8-2.8 3.2 25.8z"/></g></svg>