<svg xmlns="http://www.w3.org/2000/svg" viewBox="0 0 680 400"><filter id="b"><feGaussianBlur stdDeviation="12" /></filter><path fill="#727c85" d="M0 0h680v398H0z"/><g filter="url(#b)" transform="translate(1.3 1.3) scale(2.65625)" fill-opacity=".5"><ellipse fill="#d6edff" cx="85" cy="18" rx="212" ry="29"/><ellipse fill="#000007" rx="1" ry="1" transform="matrix(-46.3033 -61.6702 40.47455 -30.38915 230.5 116.2)"/><ellipse fill="#00193a" cx="226" cy="114" rx="45" ry="45"/><ellipse fill="#9c4a33" cx="20" cy="148" rx="56" ry="56"/><ellipse fill="#55401c" rx="1" ry="1" transform="matrix(-66.36609 -8.48367 1.7332 -13.55854 145.6 66.9)"/><ellipse fill="#cfb4a0" rx="1" ry="1" transform="matrix(-78.46078 -13.11346 1.2516 -7.48865 75.9 76.3)"/><ellipse fill="#2a5b67" rx="1" ry="1" transform="matrix(-4.22923 27.28212 -49.07729 -7.60789 149 143.6)"/><path fill="#290000" d="M-15.7 125l24.6-4.4 6.8 38.4-24.6 4.4z"/></g></svg>