<svg xmlns="http://www.w3.org/2000/svg" viewBox="0 0 680 400"><filter id="b"><feGaussianBlur stdDeviation="12" /></filter><path fill="#727c85" d="M0 0h680v398H0z"/><g filter="url(#b)" transform="translate(1.3 1.3) scale(2.65625)" fill-opacity=".5"><ellipse fill="#000005" rx="1" ry="1" transform="rotate(141.2 98.3 111) scale(52.95754 100.85838)"/><ellipse fill="#d7eeff" rx="1" ry="1" transform="rotate(-179.9 44.4 10.4) scale(255 24.00319)"/><ellipse fill="#00183a" rx="1" ry="1" transform="rotate(58.3 3.7 268.7) scale(56.5763 43.50356)"/><ellipse fill="#9b4a33" cx="22" cy="149" rx="55" ry="57"/><path fill="#5c4722" d="M47 49l224 11-114 26z"/><path fill="#c8b4a4" d="M39.5 94.4l-25.1-1.7 45-33.8 99.8 30.7z"/><ellipse fill="#2a5b67" rx="1" ry="1" transform="rotate(-74.3 166 -23.7) scale(25.33366 47.5408)"/><path fill="#c4ccd7" d="M45-16l-61 82 180-34z"/></g></svg>