<svg xmlns="http://www.w3.org/2000/svg" viewBox="0 0 1063 384"><filter id="b"><feGaussianBlur stdDeviation="12" /></filter><path fill="#5f5c58" d="M0 0h1063v382H0z"/><ellipse fill="#fff" fill-opacity=".5" rx="1" ry="1" transform="rotate(89.9 26.5 67.8) scale(153.42769 207.38874)"/><ellipse fill="#fff" fill-opacity=".5" rx="1" ry="1" transform="rotate(-83.5 571.7 -492) scale(173.60669 88.14325)"/><ellipse fill-opacity=".5" rx="1" ry="1" transform="rotate(-120.5 336.9 2.6) scale(300.1244 171.18586)"/><ellipse fill="#fff" fill-opacity=".5" rx="1" ry="1" transform="rotate(-175 325 -13.1) scale(101.05711 164.72173)"/><ellipse fill-opacity=".5" rx="1" ry="1" transform="matrix(8.602 138.3547 -101.27118 6.29638 110 309.4)"/><ellipse fill-opacity=".5" rx="1" ry="1" transform="matrix(192.57308 572.21933 -69.11389 23.2594 889 309.4)"/><ellipse fill="#fff" fill-opacity=".5" rx="1" ry="1" transform="matrix(-81.08629 -115.87231 123.25858 -86.25512 146.7 38.5)"/><path fill="#fff" fill-opacity=".5" d="M742.1 384.2l91-139.5-296.7-100L665 170.4z"/></svg>