<svg xmlns="http://www.w3.org/2000/svg" viewBox="0 0 1063 384"><filter id="b"><feGaussianBlur stdDeviation="12" /></filter><path fill="#5f5c58" d="M0 0h1063v382H0z"/><g filter="url(#b)" transform="translate(2 2) scale(4.15234)" fill-opacity=".5"><ellipse fill="#fff" rx="1" ry="1" transform="matrix(13.86031 30.98512 -40.20243 17.98342 32.2 11.1)"/><path fill="#fff" d="M243.4-22.7l53.9 26.3-34.7 71-53.9-26.2z"/><ellipse fill="#0d0000" cx="100" cy="65" rx="55" ry="55"/><path fill="#fff" d="M120.4-10.6L146.7-23l25 53.5L145.2 43z"/><ellipse cx="27" cy="78" rx="27" ry="38"/><ellipse rx="1" ry="1" transform="matrix(-26.90112 -97.4071 16.66139 -4.60141 207.4 57.2)"/><ellipse fill="#fff" rx="1" ry="1" transform="matrix(-3.68 -45.73802 36.69427 -2.95235 35.6 0)"/><path fill="#fff" d="M172 50l-1 46 30-36z"/></g></svg>